<svg xmlns="http://www.w3.org/2000/svg" viewBox="0 0 160 180" aria-hidden="true"><defs><filter id="ds" x="-30%" y="-80%" width="160%" height="260%"><feGaussianBlur stdDeviation="3"/></filter></defs><g><g id="shadow"><ellipse cx="80" cy="164" rx="29" ry="4" fill="#35251f" opacity=".2" filter="url(#ds)"/></g><g id="body-back"><path d="M111 113c20-10 25 9 15 19-8 8-19 4-19-4 0-5 7-7 11-4-1-5-6-7-11-4Z" fill="#d9834f" stroke="#54372d" stroke-width="4"/><path d="M116 121c5-1 9 2 8 6-1 5-5 6-9 5" fill="none" stroke="#fff1d2" stroke-width="4" stroke-linecap="round"/></g><g id="body"><path d="M50 101c6-16 18-24 31-24 16 0 27 9 32 25l3 47c-18 12-55 12-73-1Z" fill="#d9834f" stroke="#54372d" stroke-width="4" stroke-linejoin="round"/><path d="M60 103c11 7 28 7 40 0l3 45c-12 6-28 6-40 0Z" fill="#fff1d2" stroke="#54372d" stroke-width="3"/><path d="M58 101 80 112l22-11" fill="none" stroke="#f26b5e" stroke-width="6"/><path d="M51 145c8-4 18 0 20 8l-2 10c-8 4-18 3-24-2v-9c1-3 3-6 6-7ZM89 146c8-4 18 0 21 8v9c-8 4-18 3-24-1l-1-9c0-3 2-6 4-7Z" fill="#a95b3a" stroke="#54372d" stroke-width="4"/><path d="m54 48-4-22 19 13M106 48l5-22-20 13" fill="#d9834f" stroke="#54372d" stroke-width="4" stroke-linejoin="round"/><ellipse cx="80" cy="70" rx="34" ry="31" fill="#d9834f" stroke="#54372d" stroke-width="4"/><path d="M58 73c3-11 12-18 22-18s19 7 22 18c2 10-7 20-22 20S56 83 58 73Z" fill="#fff1d2" stroke="#54372d" stroke-width="3"/><circle cx="68" cy="66" r="3" fill="#35251f"/><circle cx="92" cy="66" r="3" fill="#35251f"/><path d="m80 75 6 4-6 5-6-5Z" fill="#35251f"/><path d="M72 86c5 4 11 4 16 0" fill="none" stroke="#54372d" stroke-width="2.5" stroke-linecap="round"/><path d="M49 48c-7-7-5-18 4-23 4-10 17-13 26-6 8-8 22-5 26 5 11 4 13 17 5 24Z" fill="#fffaf0" stroke="#54372d" stroke-width="4" stroke-linejoin="round"/><path d="M49 48c16 7 44 7 61 0v12c-16 7-45 7-61 0Z" fill="#d8e9e8" stroke="#54372d" stroke-width="4"/></g><g id="arm-far"><path d="M53 106c-10 2-15 11-12 21 3 8 10 11 17 6l9-8-9-12-6 6c-2-4 0-7 5-10Z" fill="#c16b43" stroke="#54372d" stroke-width="4"/></g><g id="arm-near"><path d="M108 107c10 3 14 12 10 22-3 8-10 10-17 5l-8-9 10-11 5 6c2-4 0-7-5-10Z" fill="#d9834f" stroke="#54372d" stroke-width="4"/></g></g><circle id="held-anchor" cx="80" cy="108" r="1" fill="none"/></svg>
