<svg xmlns="http://www.w3.org/2000/svg" viewBox="0 0 128 128" role="img" aria-labelledby="title desc">
  <title id="title">漢堡麵包</title>
  <desc id="desc">暖陽小廚房原創 2.5D 玩具風格漢堡麵包圖示</desc>
  <defs>
    <filter id="shadow" x="-20%" y="-60%" width="140%" height="220%"><feGaussianBlur stdDeviation="3"/></filter>
  </defs>
  <ellipse cx="63" cy="103" rx="39" ry="9" fill="#35251f" opacity=".18" filter="url(#shadow)"/>
  <path d="M27 69c0-25 16-43 37-43 22 0 39 17 39 43v11H27Z" fill="#ffd45e" stroke="#54372d" stroke-width="4" stroke-linejoin="round"/>
  <path d="M27 69c8 5 22 8 37 8 16 0 30-3 39-8v18c-8 9-23 14-39 14-16 0-30-5-37-14Z" fill="#e9ad68" stroke="#54372d" stroke-width="4" stroke-linejoin="round"/>
  <path d="M31 65c7-22 21-34 39-34 12 0 22 5 29 15-7-14-19-20-35-20-21 0-37 18-37 43v5c1-3 2-6 4-9Z" fill="#ffe78c"/>
  <g fill="#fff1d2" stroke="#c9783f" stroke-width="1.8" stroke-linecap="round">
    <path d="m47 45 5 3"/><path d="m66 38 1 6"/><path d="m82 48 5-2"/><path d="m56 59 5-2"/><path d="m77 61 3 4"/>
  </g>
</svg>
