<svg xmlns="http://www.w3.org/2000/svg" viewBox="0 0 128 128" role="img" aria-labelledby="title desc">
  <title id="title">熟肉排</title>
  <desc id="desc">暖陽小廚房原創 2.5D 玩具風格熟肉排圖示</desc>
  <defs><filter id="shadow" x="-20%" y="-60%" width="140%" height="220%"><feGaussianBlur stdDeviation="3"/></filter></defs>
  <ellipse cx="64" cy="101" rx="42" ry="10" fill="#35251f" opacity=".18" filter="url(#shadow)"/>
  <path d="M22 61c2-18 20-31 43-31s41 13 42 31l-2 20c-3 15-20 24-41 24-22 0-39-10-42-25Z" fill="#7d442f" stroke="#54372d" stroke-width="4" stroke-linejoin="round"/>
  <ellipse cx="64" cy="61" rx="43" ry="31" fill="#c9783f" stroke="#54372d" stroke-width="4"/>
  <ellipse cx="62" cy="55" rx="34" ry="22" fill="#de9856"/>
  <g fill="none" stroke="#7d442f" stroke-width="5" stroke-linecap="round">
    <path d="m42 45 40 27"/><path d="m52 37 40 27"/><path d="m34 57 33 22"/>
    <path d="m84 42-37 31"/><path d="m94 53-31 27"/>
  </g>
  <path d="M36 45c7-9 17-13 26-14" fill="none" stroke="#f0b572" stroke-width="5" stroke-linecap="round" opacity=".8"/>
</svg>
