<svg xmlns="http://www.w3.org/2000/svg" viewBox="0 0 96 96" aria-hidden="true"><ellipse cx="48" cy="82" rx="27" ry="7" fill="#35251f" opacity=".16"/><path d="M21 51c2-19 14-30 27-30 16 0 28 12 28 30 0 21-13 32-28 32S19 72 21 51Z" fill="#df5147" stroke="#54372d" stroke-width="4"/><path d="M41 24c4-4 6-9 7-14 4 4 6 9 5 14 6-3 11-3 15-1-5 5-10 7-16 9-6 1-12-2-18-7 3-1 5-1 7-1Z" fill="#55b894" stroke="#54372d" stroke-width="3"/><path d="M30 43c4-8 10-12 17-13" fill="none" stroke="#ff9584" stroke-width="4" stroke-linecap="round"/></svg>
